<?xml version="1.0" encoding="UTF-8" standalone="no"?>
<svg
   enable-background="new 0 0 2344.8 639.5"
   viewBox="0 0 2344.8 639.5"
   version="1.1"
   id="svg1"
   sodipodi:docname="sanrio-logo-white.svg"
   inkscape:version="1.4 (e7c3feb1, 2024-10-09)"
   xmlns:inkscape="http://www.inkscape.org/namespaces/inkscape"
   xmlns:sodipodi="http://sodipodi.sourceforge.net/DTD/sodipodi-0.dtd"
   xmlns="http://www.w3.org/2000/svg"
   xmlns:svg="http://www.w3.org/2000/svg">
  <defs
     id="defs1" />
  <sodipodi:namedview
     id="namedview1"
     pagecolor="#ffffff"
     bordercolor="#000000"
     borderopacity="0.25"
     inkscape:showpageshadow="2"
     inkscape:pageopacity="0.0"
     inkscape:pagecheckerboard="0"
     inkscape:deskcolor="#d1d1d1"
     inkscape:zoom="0.26120503"
     inkscape:cx="846.07866"
     inkscape:cy="367.52738"
     inkscape:window-width="1440"
     inkscape:window-height="793"
     inkscape:window-x="0"
     inkscape:window-y="25"
     inkscape:window-maximized="0"
     inkscape:current-layer="svg1" />
  <path
     d="m1665.6 201.1c39.7 0 71.7-29.2 71.7-65.2s-32-65.1-71.7-65.1c-39.8 0-71.9 29.1-71.9 65.1.1 36 32.2 65.2 71.9 65.2m-1211.2-53.8c-18.2 11.8-41.7 11.6-59.8-.4-14.2-10.5-26.9-25.7-43.4-32.1-35.8-17.6-88.3-4.1-114.7 5.3-26.4 9.2-54.5 22.8-78.5 46.3-6.9 6.8-22 27.1 12 43.4 33.9 16.1 138.9 54.8 165.9 64.9 26.8 10.2 66.5 29.3 90.7 58.7 19.7 23.9 27.1 56.7 21 93.1-12.1 71.3-62 115.7-108.8 142.4-51.8 29.4-91.4 36.1-126.3 38.8-34.8 2.9-84-2.1-124.4-17.4-30.9-12-59.7-35.3-75.5-65.5-12.9-24.5-19.4-57.1-2.5-89.7s56.5-44.9 80.4-39.7c23.9 5.4 34.2 15.9 39.6 28.5 8.1 18.9-.4 36.3 9.5 54.8 14.5 26.6 51 26.1 80.7 24 42.3-2.9 92.7-33.3 109.8-69.8 6.4-13.9 8.9-26-2.1-37.8-14-15-33.6-20.6-53.9-28.4-35.8-14-98.9-35.9-148.3-53.4-44.5-16.5-100.4-45.2-108.8-100.9-8.5-57.5 27-106.3 73.7-136.1 59.6-39.2 127.4-64.4 198.1-73.6 61.6-7.4 126.3-.8 173 38.8 20.8 18.7 29.1 47.2 20.2 74.1-4.7 12.8-15.4 24.3-27.3 31.8m1762.5 218.4c10.8-17.9 12.7-46.3 1.2-64.3-10.1-16.5-28-23.9-46-21.3-34 5.8-62.8 25-93.1 39.8-28.7 15.8-61.3 44.6-96 24-19.4-14.9-29.2-37-25.4-61.3-2.9-2.9-7.1-3.7-11.2-3.7-15.9-.4-31.8 9-40.4 23.2-17.5 31-10.1 74.4-2.1 107.6 12 38.1 30 74.8 61.6 103.6 12 10.5 31.5 11.6 46.8 6.8 42.9-13.1 84.1-33 120.6-62.5 23.8-17.4 45.2-37.9 63.6-60.9 8-10 14.4-20.5 20.4-31m24.5 156.2c-83.2 76.6-167.1 105.9-201.3 112.6-32.5 6.3-66.5 8.4-101.7-6.4-24.3-10.3-39.9-22.8-57.9-38.5-18.3-16.8-32.1-36.2-44-56.4-.8-1.6-3.7-1.2-4.6-.4-32.9 15-66.9 26.6-100.9 37.4-11.8 3.7-24.5 6.3-37 6.2-51 0-69.8-34.4-72.1-37.6-1.6-2.9-3.7-3.7-8-2.1-33 13.2-70.4 28.5-100.4 34.1-30.4 5.8-42.1 11.3-76.2-13.4-30.8-22.4-29.8-52-30.4-62.5-2.5-18.3 4.7-105.7 6.2-141.8-.4-5.3-2.5-10.1-8.3-12.8-5.7-2.9-29.9 0-34.1.4-5.1.4-7.1 2.1-8.9 6.6-15.9 57.3-33.6 113.9-63.4 165.4-15.4 25.7-37.9 55.3-71.9 62.4-39.2 8.4-68.6-30.2-87.9-58.2-19.2-28-36.5-52.2-40.3-57.5-4.1-5.2-10.3-8.1-19.6 3.7-8.1 10.4-59.3 101.9-69.4 109-14.8 10.2-24.5.8-32.5-10.4-5.6-8-49.8-96.4-53.3-102.7-2.5-4.9-8.2-15-21.5 2.9-26.5 33.6-58.8 83.9-77.7 101.6s-32.1 15.9-48.1.8c-17.9-16.9-33-44.4-43.5-58.6-5.8-8-10.3-17.8-21.3-4.7-17 19.9-46.4 54-78.8 68.7-38.8 15.2-84.9 4.1-114.8-24-23.5-25.4-34.4-56.4-37.7-90.4-2.5-43.7 4.1-85.6 19-123 18.3-47.8 52.6-96.6 99.5-124.2 46.8-27.4 117.9-28.3 158.7-.8 21.3 14.4 32.1 35.8 27.7 55.4-4.7 19.5-15.4 41.2-35.2 47.5-28 6.7-52.3-14.7-75.8-16.8s-48.6 20.1-62.1 42.6c-16.8 28-28.8 66-27.6 93.4 1.6 27.8 28.2 29.4 34.4 23.9 16.1-14 35.5-35.8 50.5-55.2 13.5-16.2 25-36 43.4-47.6 8.2-3.7 19.4-3.7 27.2 1.2 15.2 9.1 28.9 30.3 42 50.3 13 19.9 22.4 13 29 4.4 22.6-29.7 59.8-77 91.2-115.1 9-10.1 21-20.9 35.5-17.4 8.9 2.9 16.5 10 21.7 18.6 14.5 23.1 27.3 47.5 41.8 71 1.6 2.5 7.4 11.9 17.9-1.6 26.9-34.4 36.7-58.4 63.2-83 6.2-5.6 16.8-6.8 25.7-3.7 9.2 3.3 23.2 22.5 34.2 38.5 11.5 16.8 43.3 72.1 69.4 104.9 2.5 2.5 5.4 5 10.5 3.3 7.6-3.3 9.9-11.7 16.9-22.8 8.4-13.2 18.7-44.1 23.5-68 .4-1.6-1.6-3.3-2.9-3.7-27.2-13.2-43.6-41.6-41.4-71.8 1.6-25.4 16.1-49.3 41.9-60.2 25.7-10.8 57.5-9.1 80.4 7.6 11.7 8.5 15.4 18.4 20.3 29.9 2.1 3.7 5.1 2.9 5.1 2.9 36.2-1.6 70.6-5.1 107.2-2.1 19.4 2.5 37.7 15 46.4 33.3 7.4 19.1 4.6 40.3 4.6 62-1.6 32.2-2.9 67.7-5.2 97.5-2.1 27.8 24.5 22.2 30 19.9 6.7-2.9 33.2-13 49.3-22.8 0 0 2.1-.8 2.1-3.7.4-52.3-1.2-103.6 8.3-153.7 2.5-16.8 14.7-31.5 34.8-36.6 20.1-5.2 44.9-2.9 60.6 11.9 9.3 9.1 11.8 20.5 13.1 32.8.8 12.4-3.7 100.2-3.3 151.1 0 8.2 2.1 16.8 9.7 21.3 9.2 4.2 18.2.4 27.4-2.9 9.1-3.3 24.8-8.8 34.7-15.9 2.9-1.6 2.9-5.2 2.5-6.5-7.5-46-11.9-97.7.4-143.3 13-46.8 34.8-79.5 84-107.3 30.3-16.9 76.9-18.7 114.5-4.3 15.1 5.8 36.7 17.9 43 24.6 2.9 3.3 6.4 2.1 11.4-.4 62.5-29.7 137.3-59.3 206.4-27.7 58.5 26.7 97.1 84.4 97.1 145.7 0 47.2-20.7 136.8-103.7 213.4"
     fill="#145297"
     id="path1"
     style="fill:#ffffff;fill-opacity:1" />
  <path
     style="fill:none;stroke:none;stroke-width:10.317;stroke-dasharray:none"
     d="M 133.07815,600.78845 C 84.424421,590.55968 48.694637,570.69934 26.435675,541.51148 10.191142,520.21024 3.4122603,500.78718 3.4122603,475.54413 c 0,-45.95527 31.2985927,-78.01581 76.1616427,-78.01581 32.785417,0 53.475147,21.76869 53.511697,56.3023 0.0387,36.55275 19.40975,50.37155 70.22253,50.09498 36.2503,-0.19733 59.34835,-7.04853 88.0972,-26.13095 31.50352,-20.91084 52.20764,-56.29363 43.7727,-74.80633 C 326.76929,384.53314 306.96192,375.44438 167.20075,325.91063 79.362046,294.77909 48.626449,275.7055 28.895519,240.08255 19.964294,223.95778 18.7888,218.57103 18.948258,194.49884 19.097917,171.9058 20.757338,163.82038 28.576,147.58824 40.998632,121.79791 66.592324,94.235584 94.462182,76.634176 229.83791,-8.8633328 390.53749,-22.426473 460.86431,45.709622 c 36.67221,35.52986 27.18845,86.980608 -19.30585,104.736928 -20.29251,7.74979 -34.38678,3.45921 -62.34568,-18.9793 -35.43592,-28.43919 -67.19258,-33.252878 -123.93536,-18.78616 -48.87493,12.46079 -108.55023,50.9277 -108.55023,69.97187 0,20.10572 13.26271,27.4166 129.69009,71.48987 83.94024,31.77533 113.40183,46.59929 136.4611,68.66206 22.5649,21.58976 31.43469,40.21347 33.38688,70.10163 3.25004,49.75912 -14.16214,91.36194 -55.48987,132.58157 -31.92261,31.83911 -63.55004,50.90703 -110.97005,66.90295 -29.00371,9.78364 -37.26618,11.04672 -78.48198,11.99761 -29.83679,0.68839 -53.87935,-0.57998 -68.24521,-3.6002 z"
     id="path9" />
  <path
     style="fill:none;stroke:none;stroke-width:10.3174"
     d="m 1948.6104,629.6764 c -33.5958,-12.46133 -67.5424,-38.36298 -90.763,-69.25322 -8.4594,-11.25343 -16.6702,-22.76496 -18.2462,-25.58117 -2.4353,-4.35172 -8.1868,-3.05411 -38.311,8.64343 -50.6061,19.65086 -90.074,31.48042 -105.0307,31.48042 -23.4952,0 -44.7963,-8.8569 -61.9603,-25.7628 l -16.092,-15.85002 -40.4919,15.34507 c -51.7601,19.61531 -92.4557,28.22888 -108.4424,22.95281 -22.4052,-7.3944 -42.0859,-23.47782 -51.2623,-41.89263 -7.9246,-15.90246 -8.7266,-21.26029 -8.5286,-56.97715 0.1202,-21.68325 1.4787,-57.85029 3.0189,-80.37121 1.6495,-24.12105 1.5193,-43.38436 -0.3171,-46.87829 -4.1578,-7.91084 -15.0051,-10.1191 -33.6306,-6.84638 l -15.3552,2.69809 -17.3072,52.81137 c -37.0206,112.96509 -75.9516,171.17986 -120.0029,179.44391 -29.9615,5.62084 -51.9463,-11.18348 -96.0923,-73.44938 -17.3944,-24.53399 -32.9999,-45.45619 -34.6787,-46.4938 -6.6961,-4.13837 -17.215,6.64053 -34.2605,35.10711 -35.5506,59.37061 -51.4063,82.47492 -58.0463,84.58237 -12.79413,4.06069 -22.2364,-7.69738 -50.20421,-62.51712 -15.2586,-29.90838 -29.87911,-56.15176 -32.49,-58.31863 -7.18984,-5.96702 -14.7829,1.81795 -57.77305,59.23332 -42.51489,56.78059 -54.17568,66.61507 -70.81421,59.72316 -12.28691,-5.08942 -24.78178,-18.94416 -47.65677,-52.84339 -9.49761,-14.07486 -18.99613,-25.59066 -21.10781,-25.59066 -2.11169,0 -18.7125,14.43219 -36.8907,32.07156 -42.92958,41.65701 -54.82895,47.98048 -90.43393,48.05749 -23.01658,0.0498 -30.32753,-1.42864 -46.61333,-9.42626 -21.13936,-10.38112 -39.65107,-28.69681 -50.50284,-49.96805 -39.03399,-76.51293 -6.56701,-208.67322 68.28869,-277.97639 45.76494,-42.37026 105.30822,-56.85803 161.87451,-39.38649 27.86863,8.60775 51.13845,29.44208 54.8236,49.08561 2.96558,15.80793 -5.63356,39.18855 -19.52064,53.07563 -12.93452,12.93452 -26.86643,13.32194 -60.20484,1.6742 -13.42913,-4.69186 -28.3454,-8.53065 -33.14727,-8.53065 -20.45659,0 -51.51411,25.24232 -65.935,53.58934 -19.954,39.22342 -26.99645,90.55945 -14.18127,103.37463 3.75349,3.75349 8.23445,6.82452 9.9577,6.82452 1.72325,0 5.50386,0.90972 8.40136,2.02159 6.99078,2.68261 37.59254,-26.33189 65.81327,-62.39966 47.26265,-60.40447 60.15681,-60.0517 102.78837,2.81214 11.04767,16.29073 17.87108,21.08939 25.71036,18.08117 2.48774,-0.95463 24.89422,-27.72715 49.79219,-59.49447 47.98058,-61.21842 67.80325,-81.87057 78.58234,-81.87057 11.42138,0 23.61735,14.05444 47.37674,54.59617 16.35384,27.90531 25.06934,39.54148 30.17074,40.2812 5.7209,0.82956 12.7252,-6.83735 34.5889,-37.86105 29.1454,-41.3561 44.5361,-57.01632 56.035,-57.01632 10.9157,0 29.5447,22.10204 62.25,73.85538 33.5247,53.0502 51.2129,76.28408 58.0758,76.28408 2.5533,0 7.7035,-3.89172 11.445,-8.64826 9.6818,-12.30839 27.5395,-56.63298 29.9748,-74.40032 1.9411,-14.1613 1.4336,-15.4143 -8.657,-21.37493 -5.8954,-3.48249 -14.9067,-12.3748 -20.0251,-19.76067 -8.1543,-11.76678 -9.3062,-16.66335 -9.3062,-39.56177 0,-22.6405 1.224,-27.98239 9.1586,-39.97241 26.8897,-40.63318 96.7918,-40.08646 120.8379,0.9451 l 9.1556,15.6229 48.5903,-2.40675 c 59.6457,-2.95433 77.5337,0.43383 95.1158,18.01594 7.2831,7.28316 13.0978,17.05349 14.4552,24.28899 1.249,6.65756 1.206,45.7267 -0.095,86.82034 -1.7419,55.00143 -1.3149,75.98247 1.6182,79.51668 6.9628,8.38961 27.3889,5.36309 54.3328,-8.05046 l 25.5919,-12.74051 1.9987,-69.95134 c 2.0168,-70.58862 5.7594,-95.26596 16.2251,-106.98248 9.4873,-10.62135 23.2455,-15.85889 41.6587,-15.85889 24.6062,0 40.22,8.24259 47.8356,25.25258 5.6256,12.56516 6.0059,21.32016 4.166,95.90875 -2.289,92.79446 -1.4793,97.22333 17.7739,97.22333 13.2253,0 47.1054,-11.75617 54.133,-18.78388 3.5938,-3.59375 3.9339,-8.74242 1.5053,-22.78673 -1.7257,-9.97917 -3.2132,-38.10567 -3.3055,-62.50333 -0.1762,-46.53713 5.3029,-73.10419 21.7397,-105.41167 17.1853,-33.77853 62.7562,-69.61099 98.057,-77.10234 38.1042,-8.08627 84.9187,1.56572 115.6825,23.85084 l 13.8348,10.02193 35.5675,-15.27973 c 102.3738,-43.97966 171.0641,-37.73568 228.5592,20.77615 19.5407,19.88629 38.5387,56.87996 43.6485,84.99421 9.2148,50.6993 -15.0011,127.65737 -58.7301,186.64461 -45.8669,61.87099 -133.0281,123.82061 -212.8702,151.29694 -37.7787,13.00089 -93.5025,15.41885 -120.9255,5.24717 z m 96.4441,-118.95842 c 71.6719,-29.04612 146.4968,-90.86611 173.1795,-143.08011 6.0938,-11.92465 8.2511,-21.61693 8.2098,-36.88422 -0.064,-23.61663 -6.0836,-35.56667 -23.1621,-45.98006 -22.6429,-13.80626 -52.4504,-5.5897 -126.1264,34.7673 -44.1563,24.1872 -54.3804,28.47489 -67.9368,28.49086 -10.7376,0.0127 -19.1096,-2.27909 -25.592,-7.00548 -12.6994,-9.25937 -24.9891,-33.85001 -24.9891,-50.00104 0,-12.72281 -0.2066,-12.92602 -13.1444,-12.92602 -54.8162,0 -68.0805,84.88272 -26.8105,171.56928 14.8917,31.2795 41.0042,64.94448 55.0789,71.00923 12.8181,5.52326 43.7519,1.20176 71.2931,-9.95974 z"
     id="path10" />
  <path
     style="fill:none;stroke:none;stroke-width:10.3174"
     d="m 1640.0594,194.6189 c -26.2078,-9.34283 -43.1216,-32.29334 -43.1216,-58.51231 0,-60.079209 87.4788,-86.053966 124.8416,-37.068766 20.0316,26.262806 17.6568,54.522286 -6.6222,78.801306 -20.7199,20.71985 -47.3526,26.67064 -75.0978,16.77977 z"
     id="path11" />
</svg>
